<svg width="720" height="396" viewBox="0 0 720 396" fill="none" xmlns="http://www.w3.org/2000/svg">
  <defs>
    <marker id="arrow-arch" viewBox="0 0 10 10" refX="5" refY="5" markerWidth="7" markerHeight="7" orient="auto">
      <path d="M 0 0 L 10 5 L 0 10 Z" fill="#94A3B8"/>
    </marker>
    <filter id="shadow-arch" x="-5%" y="-5%" width="110%" height="110%">
      <feDropShadow dx="0" dy="3" stdDeviation="8" flood-opacity="0.08"/>
    </filter>
  </defs>

  <rect width="720" height="396" rx="24" fill="#F8FAFC"/>
  <rect x="24" y="20" width="672" height="356" rx="20" fill="#FFFFFF" stroke="#E2E8F0" filter="url(#shadow-arch)"/>

  <rect x="240" y="42" width="240" height="44" rx="14" fill="#EFF6FF" stroke="#BFDBFE"/>
  <text x="360" y="69" text-anchor="middle" fill="#1E3A8A" font-size="16" font-family="Pretendard, Noto Sans KR, sans-serif" font-weight="700">Client</text>

  <line x1="360" y1="86" x2="360" y2="116" stroke="#94A3B8" stroke-width="2.5" marker-end="url(#arrow-arch)"/>

  <rect x="200" y="126" width="320" height="58" rx="16" fill="#FEF3C7" stroke="#FCD34D"/>
  <text x="360" y="153" text-anchor="middle" fill="#92400E" font-size="16" font-family="Pretendard, Noto Sans KR, sans-serif" font-weight="700">ALB</text>
  <text x="360" y="172" text-anchor="middle" fill="#B45309" font-size="13" font-family="Pretendard, Noto Sans KR, sans-serif">idle timeout = 90s</text>

  <line x1="360" y1="184" x2="360" y2="214" stroke="#94A3B8" stroke-width="2.5" marker-end="url(#arrow-arch)"/>

  <rect x="240" y="224" width="240" height="44" rx="14" fill="#F1F5F9" stroke="#CBD5E1"/>
  <text x="360" y="251" text-anchor="middle" fill="#334155" font-size="16" font-family="Pretendard, Noto Sans KR, sans-serif" font-weight="700">EC2</text>

  <line x1="360" y1="268" x2="360" y2="298" stroke="#94A3B8" stroke-width="2.5" marker-end="url(#arrow-arch)"/>

  <rect x="180" y="308" width="360" height="52" rx="14" fill="#ECFDF5" stroke="#A7F3D0"/>
  <text x="360" y="332" text-anchor="middle" fill="#166534" font-size="16" font-family="Pretendard, Noto Sans KR, sans-serif" font-weight="700">Spring Boot</text>
  <text x="360" y="350" text-anchor="middle" fill="#166534" font-size="14" font-family="Pretendard, Noto Sans KR, sans-serif">Embedded Tomcat</text>
</svg>
